<svg xmlns="http://www.w3.org/2000/svg" viewBox="0 0 720 520" fill="none">
 <rect width="720" height="520" rx="36" fill="#F4F5F2"/>
 <path d="M84 405h552" stroke="#D7DEDD" stroke-width="3"/>
 <circle cx="196" cy="230" r="57" fill="#fff" stroke="#1F5268" stroke-width="3"/>
 <circle cx="360" cy="190" r="72" fill="#EDF4F6" stroke="#1F5268" stroke-width="3"/>
 <circle cx="524" cy="230" r="57" fill="#fff" stroke="#1F5268" stroke-width="3"/>
 <path d="M126 388c8-76 52-105 70-105s62 29 70 105M281 398c10-94 47-132 79-132s69 38 79 132M454 388c8-76 52-105 70-105s62 29 70 105" fill="#fff" stroke="#1F5268" stroke-width="3"/>
 <circle cx="360" cy="174" r="23" fill="#B58B3F"/>
 <path d="M332 229h56" stroke="#B58B3F" stroke-width="5" stroke-linecap="round"/>
 <path d="M196 214v18m-9-9h18M524 214v18m-9-9h18" stroke="#B58B3F" stroke-width="4" stroke-linecap="round"/>
 <path d="M112 128c33-31 67-42 104-32M505 96c42-10 76 1 105 30" stroke="#1F5268" stroke-width="3" stroke-linecap="round"/>
 <path d="M90 151c19-4 37 0 52 11M578 162c15-11 33-15 52-11" stroke="#B58B3F" stroke-width="3" stroke-linecap="round"/>
</svg>
